<svg width="10" height="16" viewBox="0 0 10 16" fill="none" xmlns="http://www.w3.org/2000/svg">
<path d="M8.05524 15.2668C8.22088 15.4136 8.42331 15.5 8.65339 15.5C9.13194 15.5 9.5 15.1632 9.5 14.7142C9.5 14.4896 9.39878 14.291 9.25154 14.1529L2.05522 7.538V8.46201L9.25154 1.8472C9.39878 1.70034 9.5 1.50174 9.5 1.28583C9.5 0.836837 9.13194 0.5 8.65339 0.5C8.42331 0.5 8.22088 0.586364 8.05524 0.733155L0.766872 7.41707C0.592025 7.56394 0.5 7.77978 0.5 7.99569C0.5 8.22022 0.592025 8.41883 0.766872 8.58291L8.05524 15.2668Z" fill="white"/>
</svg>
