<svg width="21" height="20" viewBox="0 0 21 20" fill="none" xmlns="http://www.w3.org/2000/svg">
<path d="M3.86963 20H17.2095C19.2505 20 20.2661 18.8714 20.2661 16.6358V3.38577C20.2661 1.15029 19.2505 0.021698 17.2095 0.021698H3.86963C1.82861 0.021698 0.803223 1.13944 0.803223 3.38577V16.6358C0.803223 18.8822 1.82861 20 3.86963 20ZM3.72315 18.2528C2.85401 18.2528 2.37549 17.7428 2.37549 16.7335V6.50025C2.37549 5.50189 2.85401 4.981 3.72315 4.981H17.3364C18.2056 4.981 18.6939 5.50189 18.6939 6.50025V16.7335C18.6939 17.7428 18.2056 18.2528 17.3364 18.2528H3.72315ZM8.63526 8.87681H9.21139C9.55322 8.87681 9.66064 8.76829 9.66064 8.38847V7.74822C9.66064 7.3684 9.55322 7.24903 9.21139 7.24903H8.63526C8.29346 7.24903 8.17627 7.3684 8.17627 7.74822V8.38847C8.17627 8.76829 8.29346 8.87681 8.63526 8.87681ZM11.8775 8.87681H12.4536C12.7954 8.87681 12.9126 8.76829 12.9126 8.38847V7.74822C12.9126 7.3684 12.7954 7.24903 12.4536 7.24903H11.8775C11.5356 7.24903 11.4185 7.3684 11.4185 7.74822V8.38847C11.4185 8.76829 11.5356 8.87681 11.8775 8.87681ZM15.1196 8.87681H15.6958C16.0376 8.87681 16.1548 8.76829 16.1548 8.38847V7.74822C16.1548 7.3684 16.0376 7.24903 15.6958 7.24903H15.1196C14.7778 7.24903 14.6704 7.3684 14.6704 7.74822V8.38847C14.6704 8.76829 14.7778 8.87681 15.1196 8.87681ZM5.39306 12.4254H5.95947C6.31104 12.4254 6.41846 12.3169 6.41846 11.937V11.2968C6.41846 10.917 6.31104 10.8085 5.95947 10.8085H5.39306C5.04151 10.8085 4.93408 10.917 4.93408 11.2968V11.937C4.93408 12.3169 5.04151 12.4254 5.39306 12.4254ZM8.63526 12.4254H9.21139C9.55322 12.4254 9.66064 12.3169 9.66064 11.937V11.2968C9.66064 10.917 9.55322 10.8085 9.21139 10.8085H8.63526C8.29346 10.8085 8.17627 10.917 8.17627 11.2968V11.937C8.17627 12.3169 8.29346 12.4254 8.63526 12.4254ZM11.8775 12.4254H12.4536C12.7954 12.4254 12.9126 12.3169 12.9126 11.937V11.2968C12.9126 10.917 12.7954 10.8085 12.4536 10.8085H11.8775C11.5356 10.8085 11.4185 10.917 11.4185 11.2968V11.937C11.4185 12.3169 11.5356 12.4254 11.8775 12.4254ZM15.1196 12.4254H15.6958C16.0376 12.4254 16.1548 12.3169 16.1548 11.937V11.2968C16.1548 10.917 16.0376 10.8085 15.6958 10.8085H15.1196C14.7778 10.8085 14.6704 10.917 14.6704 11.2968V11.937C14.6704 12.3169 14.7778 12.4254 15.1196 12.4254ZM5.39306 15.9848H5.95947C6.31104 15.9848 6.41846 15.8654 6.41846 15.4856V14.8453C6.41846 14.4655 6.31104 14.357 5.95947 14.357H5.39306C5.04151 14.357 4.93408 14.4655 4.93408 14.8453V15.4856C4.93408 15.8654 5.04151 15.9848 5.39306 15.9848ZM8.63526 15.9848H9.21139C9.55322 15.9848 9.66064 15.8654 9.66064 15.4856V14.8453C9.66064 14.4655 9.55322 14.357 9.21139 14.357H8.63526C8.29346 14.357 8.17627 14.4655 8.17627 14.8453V15.4856C8.17627 15.8654 8.29346 15.9848 8.63526 15.9848ZM11.8775 15.9848H12.4536C12.7954 15.9848 12.9126 15.8654 12.9126 15.4856V14.8453C12.9126 14.4655 12.7954 14.357 12.4536 14.357H11.8775C11.5356 14.357 11.4185 14.4655 11.4185 14.8453V15.4856C11.4185 15.8654 11.5356 15.9848 11.8775 15.9848Z" fill="#820083"/>
</svg>
