<svg width="24" height="24" viewBox="0 0 24 24" fill="none" xmlns="http://www.w3.org/2000/svg">
<path d="M11.9531 23.9472C18.4922 23.9472 23.9062 18.5215 23.9062 11.9941C23.9062 5.45508 18.4805 0.0410156 11.9414 0.0410156C5.41406 0.0410156 0 5.45508 0 11.9941C0 18.5215 5.42578 23.9472 11.9531 23.9472ZM11.9531 21.9551C6.42188 21.9551 2.00391 17.5254 2.00391 11.9941C2.00391 6.4629 6.41016 2.03321 11.9414 2.03321C17.4727 2.03321 21.9141 6.4629 21.9141 11.9941C21.9141 17.5254 17.4844 21.9551 11.9531 21.9551ZM10.6641 17.5605C11.0508 17.5605 11.3789 17.373 11.6133 17.0098L16.9688 8.58399C17.0977 8.34961 17.25 8.0918 17.25 7.83399C17.25 7.30664 16.7812 6.9668 16.2891 6.9668C15.9961 6.9668 15.7031 7.1543 15.4805 7.49414L10.6172 15.2988L8.30859 12.3105C8.02734 11.9355 7.76953 11.8418 7.44141 11.8418C6.9375 11.8418 6.53906 12.2519 6.53906 12.7676C6.53906 13.0254 6.64453 13.2715 6.80859 13.4941L9.66797 17.0098C9.96094 17.3965 10.2773 17.5605 10.6641 17.5605Z" fill="#00CA8D"/>
</svg>
