<svg width="20" height="21" viewBox="0 0 20 21" fill="none" xmlns="http://www.w3.org/2000/svg">
<path d="M0 8.26504C0 12.7686 3.66428 16.4329 8.16787 16.4329C9.94882 16.4329 11.5763 15.8598 12.9171 14.8976L17.953 19.9437C18.1883 20.1791 18.4954 20.2917 18.823 20.2917C19.519 20.2917 20 19.7696 20 19.0839C20 18.7564 19.8772 18.4595 19.6622 18.2446L14.6571 13.2087C15.7114 11.8372 16.3357 10.1279 16.3357 8.26504C16.3357 3.76145 12.6715 0.097168 8.16787 0.097168C3.66428 0.097168 0 3.76145 0 8.26504ZM1.75026 8.26504C1.75026 4.72359 4.62642 1.84743 8.16787 1.84743C11.7093 1.84743 14.5855 4.72359 14.5855 8.26504C14.5855 11.8065 11.7093 14.6826 8.16787 14.6826C4.62642 14.6826 1.75026 11.8065 1.75026 8.26504ZM4.35006 8.84843H7.3081C7.44116 8.84843 7.52304 8.94058 7.52304 9.0736L7.53328 11.9908C7.53328 12.6254 8.19858 12.6868 8.40329 12.2364L11.5353 5.56289C11.7912 5.01018 11.3307 4.54958 10.7779 4.80546L4.11465 7.96822C3.65405 8.18316 3.73593 8.84843 4.35006 8.84843Z" fill="white"/>
</svg>
