<svg width="17" height="21" viewBox="0 0 17 21" fill="none" xmlns="http://www.w3.org/2000/svg">
<path fill-rule="evenodd" clip-rule="evenodd" d="M16.2513 21C16.0524 21 15.8617 20.921 15.721 20.7803C15.5804 20.6397 15.5013 20.4489 15.5013 20.25V0.75C15.5013 0.551088 15.5804 0.360322 15.721 0.21967C15.8617 0.0790176 16.0524 0 16.2513 0C16.4503 0 16.641 0.0790176 16.7817 0.21967C16.9223 0.360322 17.0013 0.551088 17.0013 0.75V20.25C17.0013 20.4489 16.9223 20.6397 16.7817 20.7803C16.641 20.921 16.4503 21 16.2513 21ZM12.5013 10.5C12.5013 10.6989 12.4223 10.8897 12.2817 11.0303C12.141 11.171 11.9503 11.25 11.7513 11.25H3.06184L6.28234 14.469C6.35207 14.5387 6.40739 14.6215 6.44513 14.7126C6.48286 14.8037 6.50229 14.9014 6.50229 15C6.50229 15.0986 6.48286 15.1963 6.44513 15.2874C6.40739 15.3785 6.35207 15.4613 6.28234 15.531C6.21261 15.6007 6.12983 15.656 6.03872 15.6938C5.94761 15.7315 5.84996 15.7509 5.75134 15.7509C5.65272 15.7509 5.55507 15.7315 5.46397 15.6938C5.37286 15.656 5.29007 15.6007 5.22034 15.531L0.720341 11.031C0.650496 10.9613 0.595082 10.8786 0.557272 10.7874C0.519462 10.6963 0.5 10.5987 0.5 10.5C0.5 10.4013 0.519462 10.3037 0.557272 10.2125C0.595082 10.1214 0.650496 10.0387 0.720341 9.969L5.22034 5.469C5.36117 5.32817 5.55218 5.24905 5.75134 5.24905C5.9505 5.24905 6.14151 5.32817 6.28234 5.469C6.42317 5.60983 6.50229 5.80084 6.50229 6C6.50229 6.19916 6.42317 6.39017 6.28234 6.531L3.06184 9.75H11.7513C11.9503 9.75 12.141 9.82902 12.2817 9.96967C12.4223 10.1103 12.5013 10.3011 12.5013 10.5Z" fill="#A64AC9"/>
</svg>
