<svg width="24" height="29" viewBox="0 0 24 29" fill="none" xmlns="http://www.w3.org/2000/svg">
<path opacity="0.5" d="M11.6953 29C4.85344 29 0 24.2555 0 17.7186C0 14.2482 2.08095 10.5092 2.16898 10.3531C2.34958 10.0318 2.70442 9.85669 3.07469 9.89753C3.44133 9.94472 3.74263 10.2088 3.83701 10.5655C3.84246 10.5872 4.40331 12.6854 5.14385 13.8507C5.64117 14.6348 6.14575 15.1893 6.71296 15.5741C6.32907 13.9106 6.03504 11.4076 6.5133 8.83936C7.8274 1.78971 13.376 0.102621 13.6138 0.0354641C13.9196 -0.0525657 14.2445 0.0263889 14.4768 0.237842C14.7092 0.45111 14.8153 0.769651 14.7554 1.07912C14.7464 1.12812 13.8298 6.06415 15.7746 10.2696C15.9516 10.6517 16.1975 11.0955 16.4625 11.5392C16.5378 10.9294 16.6549 10.2814 16.8346 9.65159C17.5479 7.1568 19.3929 6.30464 19.47 6.27015C19.7777 6.1304 20.1371 6.17577 20.4021 6.3845C20.6671 6.59414 20.795 6.93174 20.7333 7.26389C20.7233 7.3256 20.4665 9.02268 21.9113 11.4312C23.2163 13.6057 23.592 15.0151 23.592 17.7186C23.592 24.2555 18.5879 28.9991 11.6935 28.9991L11.6953 29ZM2.82603 13.2436C2.3278 14.5005 1.81414 16.1712 1.81414 17.7186C1.81414 23.2036 5.90345 27.184 11.6944 27.184C17.537 27.184 21.777 23.2036 21.777 17.7177C21.777 15.3481 21.4838 14.2491 20.3549 12.3642C19.5998 11.1064 19.2268 9.97467 19.0489 9.0744C18.8692 9.36572 18.7023 9.72056 18.5807 10.1489C18.0271 12.0828 18.1668 14.3444 18.1686 14.368C18.195 14.7727 17.949 15.1476 17.566 15.2828C17.1831 15.418 16.7565 15.2846 16.5215 14.9524C16.4534 14.8553 14.8389 12.5711 14.1283 11.0319C12.6509 7.83926 12.6754 4.38613 12.8269 2.39775C11.3313 3.26897 9.03622 5.2147 8.29931 9.17332C7.58146 13.0249 8.97632 16.8764 8.99084 16.9136C9.11154 17.2276 9.04802 17.5843 8.82658 17.8375C8.60424 18.0888 8.2621 18.2005 7.93176 18.1215C7.81923 18.0943 5.26546 17.43 3.61104 14.8236C3.31609 14.3571 3.0511 13.7917 2.82694 13.2427L2.82603 13.2436Z" fill="#A43EA4"/>
</svg>
