<svg width="23" height="24" viewBox="0 0 23 24" fill="none" xmlns="http://www.w3.org/2000/svg">
<path d="M7.47265 4.11834C7.47265 6.04097 8.86718 7.64678 10.7773 8.09467V15.0096C10.7773 18.2321 11.3984 19.9909 11.8672 19.9909C12.3477 19.9909 12.957 18.243 12.957 15.0096V8.09467C14.8672 7.65771 16.2734 6.04097 16.2734 4.11834C16.2734 1.85708 14.3164 0 11.8672 0C9.42968 0 7.47265 1.85708 7.47265 4.11834ZM10.6133 4.34774C9.8164 4.34774 9.11328 3.69231 9.11328 2.92762C9.11328 2.17387 9.8164 1.52935 10.6133 1.52935C11.4453 1.52935 12.125 2.17387 12.125 2.92762C12.125 3.69231 11.4453 4.34774 10.6133 4.34774ZM11.8789 23.9891C18.9453 23.9891 23 21.7169 23 19.3137C23 16.4297 18.0899 14.6709 14.8672 14.6381V16.2331C17.1289 16.2658 20.6328 17.4128 20.6328 19.0514C20.6328 20.9303 16.918 22.2631 11.8789 22.2631C6.8164 22.2631 3.125 20.9522 3.125 19.0514C3.125 17.4128 6.61718 16.2658 8.8789 16.2331V14.6381C5.65625 14.6709 0.746094 16.4297 0.746094 19.3137C0.746094 21.7169 4.8125 23.9891 11.8789 23.9891Z" fill="#8100B3"/>
</svg>
