<svg width="20" height="20" viewBox="0 0 20 20" fill="none" xmlns="http://www.w3.org/2000/svg">
<path d="M0 6.69685C0 10.9869 3.59517 15.2064 9.27497 18.8318C9.48645 18.9627 9.78851 19.1037 10 19.1037C10.2115 19.1037 10.5136 18.9627 10.7352 18.8318C16.4048 15.2064 20 10.9869 20 6.69685C20 3.13188 17.5529 0.614258 14.29 0.614258C12.427 0.614258 10.9164 1.50046 10 2.85998C9.10378 1.51053 7.57302 0.614258 5.70998 0.614258C2.44714 0.614258 0 3.13188 0 6.69685ZM1.62135 6.69685C1.62135 4.01809 3.35348 2.23561 5.68984 2.23561C7.5831 2.23561 8.67067 3.41386 9.31518 4.42091C9.58708 4.82373 9.75835 4.93451 10 4.93451C10.2417 4.93451 10.3928 4.81366 10.6848 4.42091C11.3797 3.434 12.427 2.23561 14.3102 2.23561C16.6466 2.23561 18.3787 4.01809 18.3787 6.69685C18.3787 10.443 14.4209 14.4814 10.2115 17.281C10.1108 17.3514 10.0403 17.4018 10 17.4018C9.9597 17.4018 9.88923 17.3514 9.79857 17.281C5.57906 14.4814 1.62135 10.443 1.62135 6.69685Z" fill="white"/>
</svg>
