<svg width="20" height="22" viewBox="0 0 20 22" fill="none" xmlns="http://www.w3.org/2000/svg">
<g opacity="0.5">
<path d="M0 9.07064C0 13.5742 3.66428 17.2385 8.16787 17.2385C9.94882 17.2385 11.5763 16.6654 12.9171 15.7032L17.953 20.7493C18.1883 20.9847 18.4954 21.0973 18.823 21.0973C19.519 21.0973 20 20.5752 20 19.8895C20 19.562 19.8772 19.2651 19.6622 19.0502L14.6571 14.0143C15.7114 12.6428 16.3357 10.9335 16.3357 9.07064C16.3357 4.56705 12.6715 0.902771 8.16787 0.902771C3.66428 0.902771 0 4.56705 0 9.07064ZM1.75026 9.07064C1.75026 5.52919 4.62642 2.65303 8.16787 2.65303C11.7093 2.65303 14.5855 5.52919 14.5855 9.07064C14.5855 12.6121 11.7093 15.4882 8.16787 15.4882C4.62642 15.4882 1.75026 12.6121 1.75026 9.07064Z" fill="#A43EA4"/>
</g>
</svg>
