<svg width="25" height="24" viewBox="0 0 25 24" fill="none" xmlns="http://www.w3.org/2000/svg">
<g opacity="0.5">
<path d="M0.3125 21.7442C0.3125 22.5996 0.804688 23.0918 1.64844 23.0918C1.95312 23.0918 2.24609 22.9981 2.63281 22.7871L7.55469 20.127V0.708969C7.34375 0.814438 7.10938 0.931625 6.89844 1.04881L1.34375 4.23631C0.640625 4.62303 0.3125 5.18553 0.3125 5.97069V21.7442ZM9.16016 19.9043L15.0664 23.2206C15.2422 23.3144 15.4297 23.3965 15.6055 23.4433V4.31834L9.81641 0.779281C9.61719 0.650375 9.38281 0.556625 9.16016 0.50975V19.9043ZM17.1992 23.4081C17.3164 23.373 17.4453 23.3261 17.5508 23.2558L23.6563 19.7871C24.3594 19.4004 24.6875 18.8378 24.6875 18.0527V2.26756C24.6875 1.40038 24.1953 0.919906 23.3516 0.919906C23.0469 0.919906 22.7539 1.01366 22.3672 1.22459L17.1992 4.09569V23.4081Z" fill="#A43EA4"/>
</g>
</svg>
