<svg width="21" height="16" viewBox="0 0 21 16" fill="none" xmlns="http://www.w3.org/2000/svg">
<path d="M10.5247 9.08064C10.905 9.08064 11.2574 8.90437 11.6655 8.49627L19.7352 0.51015C19.392 0.176236 18.752 0.0185547 17.8337 0.0185547H2.90032C2.12119 0.0185547 1.57394 0.166961 1.26785 0.473048L9.38379 8.49627C9.78263 8.89511 10.1352 9.08064 10.5247 9.08064ZM0.497998 14.5067L7.05569 8.02319L0.479447 1.53972C0.340316 1.79943 0.266113 2.24465 0.266113 2.88465V13.1246C0.266113 13.7833 0.340316 14.247 0.497998 14.5067ZM3.17859 16H18.112C18.891 16 19.429 15.8516 19.7352 15.5548L13.0476 8.93223L12.4354 9.55364C11.7954 10.1659 11.1925 10.4441 10.5247 10.4441C9.84761 10.4441 9.24472 10.1659 8.61398 9.55364L7.99251 8.93223L1.32351 15.5455C1.67597 15.8516 2.28815 16 3.17859 16ZM20.5236 14.4974C20.6719 14.2285 20.7462 13.7739 20.7462 13.1246V2.88465C20.7462 2.2632 20.6719 1.81798 20.5421 1.56754L13.9844 8.02319L20.5236 14.4974Z" fill="#8100B3"/>
</svg>
