<svg width="25" height="24" viewBox="0 0 25 24" fill="none" xmlns="http://www.w3.org/2000/svg">
<g opacity="0.5" clip-path="url(#clip0_126_1835)">
<path fill-rule="evenodd" clip-rule="evenodd" d="M19.7866 0.210068C19.6459 0.0694651 19.4552 -0.00952148 19.2563 -0.00952148C19.0574 -0.00952148 18.8667 0.0694651 18.7261 0.210068L16.2556 2.68057L21.8161 8.24107L24.2866 5.77207C24.3564 5.7024 24.4118 5.61964 24.4496 5.52852C24.4874 5.4374 24.5069 5.33972 24.5069 5.24107C24.5069 5.14242 24.4874 5.04474 24.4496 4.95362C24.4118 4.8625 24.3564 4.77974 24.2866 4.71007L19.7866 0.210068ZM20.7556 9.30157L15.1951 3.74107L5.44507 13.4911H5.75557C5.95448 13.4911 6.14525 13.5701 6.2859 13.7107C6.42655 13.8514 6.50557 14.0422 6.50557 14.2411V14.9911H7.25557C7.45448 14.9911 7.64525 15.0701 7.7859 15.2107C7.92655 15.3514 8.00557 15.5422 8.00557 15.7411V16.4911H8.75557C8.95448 16.4911 9.14525 16.5701 9.2859 16.7107C9.42655 16.8514 9.50557 17.0422 9.50557 17.2411V17.9911H10.2556C10.4545 17.9911 10.6452 18.0701 10.7859 18.2107C10.9266 18.3514 11.0056 18.5422 11.0056 18.7411V19.0516L20.7556 9.30157ZM9.55357 20.5036C9.52201 20.4196 9.50575 20.3307 9.50557 20.2411V19.4911H8.75557C8.55666 19.4911 8.36589 19.4121 8.22524 19.2714C8.08459 19.1307 8.00557 18.94 8.00557 18.7411V17.9911H7.25557C7.05666 17.9911 6.86589 17.9121 6.72524 17.7714C6.58459 17.6307 6.50557 17.44 6.50557 17.2411V16.4911H5.75557C5.55666 16.4911 5.36589 16.4121 5.22524 16.2714C5.08459 16.1307 5.00557 15.94 5.00557 15.7411V14.9911H4.25557C4.1659 14.9909 4.07699 14.9747 3.99307 14.9431L3.72457 15.2101C3.65309 15.282 3.59696 15.3678 3.55957 15.4621L0.559568 22.9621C0.505012 23.0984 0.491657 23.2477 0.521158 23.3915C0.55066 23.5353 0.62172 23.6673 0.72553 23.7711C0.829339 23.8749 0.961333 23.946 1.10515 23.9755C1.24896 24.005 1.39827 23.9916 1.53457 23.9371L9.03457 20.9371C9.12886 20.8997 9.21459 20.8435 9.28657 20.7721L9.55357 20.5051V20.5036Z" fill="#800080"/>
</g>
<defs>
<clipPath id="clip0_126_1835">
<rect width="24" height="24" fill="white" transform="translate(0.5)"/>
</clipPath>
</defs>
</svg>
