<svg width="20" height="20" viewBox="0 0 20 20" fill="none" xmlns="http://www.w3.org/2000/svg">
<path d="M0.5 9.66797C0.5 10.2422 0.980469 10.7109 1.54297 10.7109H9.125V18.293C9.125 18.8555 9.59375 19.3359 10.168 19.3359C10.7422 19.3359 11.2227 18.8555 11.2227 18.293V10.7109H18.793C19.3555 10.7109 19.8359 10.2422 19.8359 9.66797C19.8359 9.09375 19.3555 8.61328 18.793 8.61328H11.2227V1.04297C11.2227 0.480469 10.7422 0 10.168 0C9.59375 0 9.125 0.480469 9.125 1.04297V8.61328H1.54297C0.980469 8.61328 0.5 9.09375 0.5 9.66797Z" fill="#A64AC9"/>
</svg>
