<svg width="28" height="28" viewBox="0 0 28 28" fill="none" xmlns="http://www.w3.org/2000/svg">
<path d="M6.67969 24.5977H20.8945C23.3555 24.5977 24.5742 23.3789 24.5742 20.9648V6.65625C24.5742 4.24219 23.3555 3.02344 20.8945 3.02344H6.67969C4.23047 3.02344 3 4.23047 3 6.65625V20.9648C3 23.3906 4.23047 24.5977 6.67969 24.5977ZM6.70312 22.7109C5.53125 22.7109 4.88672 22.0898 4.88672 20.8711V6.75C4.88672 5.53125 5.53125 4.91016 6.70312 4.91016H20.8711C22.0312 4.91016 22.6875 5.53125 22.6875 6.75V20.8711C22.6875 22.0898 22.0312 22.7109 20.8711 22.7109H6.70312ZM11.8125 19.6523C12.2578 19.6523 12.5742 19.3359 12.5742 18.8789V17.6953H15.3047C15.6445 17.6953 15.8672 17.4492 15.8672 17.1094C15.8672 16.7812 15.6445 16.5352 15.3047 16.5352H12.5742V15.3867H14.5781C16.7578 15.3867 18.1406 13.9336 18.1406 11.9062C18.1406 9.89062 16.7695 8.41406 14.5898 8.41406H11.8008C11.3438 8.41406 11.0508 8.73047 11.0508 9.19922V14.2383H9.99609C9.65625 14.2383 9.42188 14.4844 9.42188 14.8125C9.42188 15.1406 9.65625 15.3984 9.99609 15.3984H11.0508V16.5352H10.0078C9.66797 16.5352 9.44531 16.7812 9.44531 17.1094C9.44531 17.4492 9.66797 17.6953 10.0078 17.6953H11.0508V18.8789C11.0508 19.3359 11.3672 19.6523 11.8125 19.6523ZM12.5859 14.0156V9.82031H14.3203C15.832 9.82031 16.6055 10.6289 16.6055 11.918C16.6055 13.2188 15.8203 14.0391 14.3203 14.0391L12.5859 14.0156Z" fill="white"/>
</svg>
