<svg width="25" height="18" viewBox="0 0 25 18" fill="none" xmlns="http://www.w3.org/2000/svg">
<path d="M0.266113 13.4691C0.266113 13.9154 0.4408 14.1969 0.828992 14.3813C1.90623 14.9151 2.50792 15.5265 3.17755 16.8463C3.38136 17.2054 3.6822 17.3898 4.0801 17.3898H20.4521C20.8403 17.3898 21.1411 17.2054 21.3449 16.8463C22.0146 15.5265 22.6163 14.9151 23.7032 14.3813C24.0914 14.1969 24.2661 13.9154 24.2661 13.4691V4.52123C24.2661 4.06511 24.0914 3.78367 23.7032 3.60898C22.6163 3.07522 22.0146 2.45411 21.3449 1.14396C21.1411 0.775181 20.8403 0.59079 20.4521 0.59079H4.0801C3.6822 0.59079 3.38136 0.775181 3.17755 1.14396C2.50792 2.45411 1.90623 3.07522 0.828992 3.60898C0.4408 3.78367 0.266113 4.06511 0.266113 4.52123V13.4691ZM4.25479 13.4205V4.56976C4.25479 4.0457 4.61386 3.68662 5.13792 3.68662H19.3845C19.9184 3.68662 20.2677 4.0457 20.2677 4.56976V13.4205C20.2677 13.9543 19.9184 14.3037 19.3845 14.3037H5.13792C4.61386 14.3037 4.25479 13.9543 4.25479 13.4205ZM5.4873 6.83098H6.78774V4.89972H5.7008C5.55523 4.89972 5.4873 4.98706 5.4873 5.12294V6.83098ZM5.4873 9.95593H6.78774V8.04408H5.4873V9.95593ZM5.4873 12.8673C5.4873 13.0129 5.55523 13.0906 5.7008 13.0906H6.78774V11.169H5.4873V12.8673ZM17.7445 6.83098H19.0449V5.12294C19.0449 4.98706 18.977 4.89972 18.8314 4.89972H17.7445V6.83098ZM17.7445 9.95593H19.0449V8.04408H17.7445V9.95593ZM17.7445 13.0906H18.8314C18.977 13.0906 19.0449 13.0129 19.0449 12.8673V11.169H17.7445V13.0906ZM8.01054 13.0906H16.5217V4.89972H8.01054V13.0906Z" fill="#8100B3"/>
</svg>
