<svg width="20" height="20" viewBox="0 0 20 20" fill="none" xmlns="http://www.w3.org/2000/svg">
<g clip-path="url(#clip0_186_1690)">
<path d="M1.11159 18.9941C1.52174 19.3926 2.20143 19.3926 2.59987 18.9941L10.0999 11.4941L17.5998 18.9941C17.9984 19.3926 18.6898 19.4043 19.0882 18.9941C19.4865 18.584 19.4865 17.916 19.0882 17.5176L11.5882 10.0058L19.0882 2.50582C19.4865 2.10738 19.4984 1.42769 19.0882 1.02925C18.6779 0.619095 17.9984 0.619095 17.5998 1.02925L10.0999 8.52926L2.59987 1.02925C2.20143 0.619095 1.51003 0.607376 1.11159 1.02925C0.713151 1.43941 0.713151 2.10738 1.11159 2.50582L8.61159 10.0058L1.11159 17.5176C0.713151 17.916 0.701432 18.5957 1.11159 18.9941Z" fill="#FF5341"/>
</g>
<defs>
<clipPath id="clip0_186_1690">
<rect width="18.583" height="18.5948" fill="white" transform="translate(0.80835 0.702576)"/>
</clipPath>
</defs>
</svg>
