<?xml version="1.0" standalone="no"?>
<!DOCTYPE svg PUBLIC "-//W3C//DTD SVG 20010904//EN"
 "http://www.w3.org/TR/2001/REC-SVG-20010904/DTD/svg10.dtd">
<svg version="1.0" xmlns="http://www.w3.org/2000/svg"
 width="260.000000pt" height="260.000000pt" viewBox="0 0 260.000000 260.000000"
 preserveAspectRatio="xMidYMid meet">
<metadata>
Created by potrace 1.14, written by Peter Selinger 2001-2017
</metadata>
<g transform="translate(0.000000,260.000000) scale(0.100000,-0.100000)"
fill="#000000" stroke="none">
<path d="M1180 2594 c-180 -23 -334 -69 -479 -144 -300 -155 -529 -426 -636
-754 -47 -146 -60 -231 -59 -401 1 -228 41 -393 145 -595 228 -445 726 -729
1219 -696 600 41 1076 453 1202 1039 30 144 30 370 0 514 -111 519 -501 909
-1015 1014 -98 20 -302 32 -377 23z m336 -454 c311 -79 553 -327 631 -646 24
-103 22 -305 -6 -409 -77 -290 -296 -523 -579 -614 -184 -59 -437 -44 -617 38
-355 161 -559 536 -501 918 43 284 217 523 473 652 173 86 406 110 599 61z"/>
<path d="M1200 2110 c-200 -25 -404 -138 -530 -293 -120 -148 -183 -328 -183
-522 0 -138 19 -218 83 -350 105 -217 296 -376 528 -436 114 -30 281 -30 392
-1 376 101 622 414 622 792 0 137 -22 232 -82 356 -149 309 -492 496 -830 454z
m255 -219 c22 -10 50 -29 62 -42 74 -82 49 -220 -50 -268 -79 -38 -157 -23
-214 42 -74 84 -46 212 57 265 53 27 92 28 145 3z m-147 -358 c92 -68 105
-186 29 -267 -57 -60 -149 -70 -217 -23 -54 36 -73 70 -77 134 -5 75 23 126
87 161 55 29 135 27 178 -5z m369 16 c125 -47 146 -231 34 -306 -67 -46 -149
-42 -207 9 -46 41 -64 77 -64 133 0 123 122 208 237 164z"/>
</g>
</svg>
