<svg width="49" height="50" viewBox="0 0 49 50" fill="none" xmlns="http://www.w3.org/2000/svg">
<ellipse cx="24.4445" cy="25" rx="24.4444" ry="25" transform="rotate(-180 24.4445 25)" fill="#EB3F98"/>
<path d="M22.4349 17.7332C22.273 17.5864 22.075 17.5 21.8501 17.5C21.3821 17.5 21.0223 17.8368 21.0223 18.2858C21.0223 18.5104 21.1212 18.709 21.2652 18.8471L28.3016 25.462V24.538L21.2652 31.1528C21.1212 31.2997 21.0223 31.4983 21.0223 31.7142C21.0223 32.1632 21.3821 32.5 21.8501 32.5C22.075 32.5 22.273 32.4136 22.4349 32.2668L29.5613 25.5829C29.7323 25.4361 29.8223 25.2202 29.8223 25.0043C29.8223 24.7798 29.7323 24.5812 29.5613 24.4171L22.4349 17.7332Z" fill="white"/>
</svg>
