<svg width="49" height="53" viewBox="0 0 49 53" fill="none" xmlns="http://www.w3.org/2000/svg">
<path d="M40.5576 26.9882H38.9559C38.9299 26.99 38.9054 27.0011 38.887 27.0195C38.8686 27.0379 38.8575 27.0623 38.8557 27.0883V32.1704C38.5059 32.2705 38.155 32.3206 37.7551 32.3206C36.7039 32.3206 36.4537 31.9955 36.4537 30.5934V27.0883C36.4519 27.0623 36.4408 27.0379 36.4224 27.0195C36.4039 27.0011 36.3795 26.99 36.3536 26.9882H34.753C34.727 26.99 34.7025 27.0011 34.6842 27.0195C34.6657 27.0379 34.6546 27.0623 34.6528 27.0883V30.7688C34.6528 33.0714 35.4284 33.9483 37.4047 33.9483C38.5307 33.9483 39.8068 33.6479 40.5576 33.3723C40.5824 33.347 40.6071 33.3223 40.6071 33.2969V27.0889C40.6572 27.0388 40.6071 26.9888 40.5576 26.9888V26.9882ZM6.62998 27.0135H5.00346C4.95341 27.0135 4.92868 27.0382 4.92868 27.0883C4.6784 28.0894 4.15311 29.7919 3.45233 31.5697L1.82641 27.0636C1.80109 27.0382 1.77635 27.0135 1.75103 27.0135H0.0997873C0.0744651 27.0135 0.0497316 27.0382 0.0244094 27.0636C-0.000323957 27.0883 -0.000323957 27.1136 0.0244094 27.1383L2.47654 33.8481C2.25878 34.3067 2.02504 34.7575 1.77576 35.1996C1.60086 35.5 1.4507 35.8003 1.30053 36.126C1.2758 36.1513 1.2758 36.176 1.30053 36.2013C1.32585 36.2261 1.35059 36.2514 1.37591 36.2514H3.152C3.17732 36.2514 3.22738 36.2261 3.22738 36.2013C3.5967 35.4801 3.93889 34.7452 4.25322 33.9983C5.3038 31.5444 6.12942 29.2413 6.75541 27.1383C6.75541 27.1136 6.75541 27.0883 6.73009 27.0636C6.68003 27.0135 6.6553 27.0135 6.62998 27.0135ZM12.46 32.1704C12.4591 32.1574 12.4536 32.1451 12.4444 32.1359C12.4352 32.1267 12.4229 32.1212 12.4099 32.1203H12.3345C11.9341 32.2705 11.2086 32.3706 10.708 32.3706C9.58266 32.3706 9.05679 32.0703 9.05679 30.3684C9.05679 28.991 9.23228 28.365 10.708 28.365C11.1338 28.365 11.5089 28.4151 12.0095 28.5652C12.0595 28.5652 12.0843 28.5652 12.1096 28.5152L12.7597 27.2137V27.1383C12.7589 27.1253 12.7533 27.1131 12.7441 27.1039C12.7349 27.0947 12.7227 27.0891 12.7097 27.0883C12.02 26.8787 11.3039 26.7691 10.5832 26.7626C8.25649 26.7626 7.20532 27.8644 7.20532 30.3431C7.20532 32.8464 8.25649 33.973 10.5832 33.973C11.1585 33.973 12.3345 33.8481 12.8852 33.6226C12.9352 33.5973 12.9599 33.5472 12.9352 33.4972L12.46 32.1704ZM27.6969 27.0135H26.071C26.0209 27.0135 25.9956 27.0382 25.9956 27.0883C25.7453 28.1147 25.22 29.7919 24.5192 31.5697L22.8933 27.0636C22.868 27.0382 22.8433 27.0135 22.8179 27.0135H21.1667C21.142 27.0135 21.1166 27.0382 21.0919 27.0636C21.0666 27.0883 21.0666 27.1136 21.0919 27.1383L23.5435 33.8481C23.3257 34.3067 23.092 34.7575 22.8427 35.1996C22.6678 35.5 22.5176 35.8003 22.3674 36.126C22.3427 36.1513 22.3427 36.176 22.3674 36.2013C22.3928 36.2261 22.4175 36.2514 22.4428 36.2514H24.2189C24.2442 36.2514 24.2943 36.2261 24.2943 36.2013C24.6636 35.4801 25.0058 34.7452 25.3201 33.9983C26.346 31.5444 27.1963 29.2413 27.8223 27.1383C27.8223 27.1136 27.8223 27.0883 27.797 27.0636C27.7469 27.0135 27.7222 27.0135 27.6969 27.0135ZM33.7018 26.9882H28.973C28.947 26.99 28.9226 27.0011 28.9042 27.0195C28.8858 27.0379 28.8747 27.0623 28.8729 27.0883V33.6727C28.8729 33.7227 28.923 33.7728 28.973 33.7728H30.5748C30.6243 33.7728 30.6749 33.7227 30.6749 33.6727V28.5652H33.1512C33.1765 28.5652 33.2266 28.5405 33.2266 28.5152C33.4268 28.0647 33.6017 27.5888 33.8019 27.1136V27.0382C33.7518 27.0135 33.7271 26.9882 33.7018 26.9882Z" fill="#EF3E58"/>
<path d="M8.53182 16.874C6.22986 16.874 5.32944 17.8751 5.32944 20.4038C5.32944 22.9826 6.23044 23.9843 8.53182 23.9843C10.8585 23.9843 11.7589 22.9826 11.7589 20.4038C11.7589 17.8751 10.8585 16.874 8.53182 16.874ZM8.53182 22.5321C7.48124 22.5321 7.15559 22.2565 7.15559 20.4539C7.15559 18.5518 7.50598 18.3763 8.53182 18.3763C9.58299 18.3763 9.93338 18.5512 9.93338 20.4539C9.93338 22.2317 9.60772 22.5321 8.53182 22.5321ZM18.1649 22.2565C18.164 22.2435 18.1585 22.2312 18.1493 22.222C18.1401 22.2128 18.1278 22.2072 18.1148 22.2064H18.0394C17.639 22.3566 16.9135 22.4567 16.4135 22.4567C15.2876 22.4567 14.7617 22.1563 14.7617 20.4545C14.7617 19.0765 14.9118 18.4511 16.4135 18.4511C16.8387 18.4511 17.2144 18.5011 17.7144 18.6513C17.7644 18.6513 17.7892 18.6513 17.8145 18.6012L18.4646 17.2998V17.2244C18.4638 17.2114 18.4582 17.1991 18.449 17.1899C18.4398 17.1807 18.4276 17.1752 18.4146 17.1743C17.7251 16.9648 17.0092 16.8552 16.2887 16.8487C13.9614 16.8487 12.9102 17.9499 12.9102 20.4291C12.9102 22.9319 13.9614 24.059 16.2881 24.059C16.8634 24.059 18.0394 23.9336 18.59 23.7087C18.6401 23.6833 18.6648 23.6333 18.6401 23.5832L18.1649 22.2565ZM0.100111 17.0742C0.0741493 17.076 0.0497109 17.0871 0.0313097 17.1055C0.0129084 17.1239 0.00178721 17.1484 0 17.1743V23.7581C0 23.8088 0.0500556 23.8582 0.100111 23.8582H1.70189C1.75136 23.8582 1.802 23.8088 1.802 23.7581V18.6513H4.27828C4.3036 18.6513 4.35365 18.6265 4.35365 18.6012C4.55388 18.1507 4.72878 17.6749 4.929 17.1997V17.1243C4.90368 17.099 4.87894 17.0742 4.85362 17.0742H0.100111Z" fill="#0F67B1"/>
<path fill-rule="evenodd" clip-rule="evenodd" d="M48.0389 33.072V32.9719C48.0389 32.9218 48.0388 32.8465 48.0642 32.7964C48.139 31.8701 48.189 30.7435 48.2391 29.4415V29.3414L48.2891 26.5377C48.2891 25.5613 48.2644 24.6097 48.2391 23.7334V23.6333L48.0642 20.279C48.0642 20.2283 48.0642 20.1535 48.0389 20.1035V20.0034C48.0389 19.9033 48.0141 19.8279 48.0141 19.7278V19.6277C47.9387 18.6513 47.8887 18.0506 47.864 18.0006C47.864 17.9005 47.8386 17.8003 47.8386 17.725V17.6502C47.8173 17.4811 47.7839 17.3139 47.7385 17.1496C47.7385 17.1243 47.7385 17.099 47.7138 17.0742C47.2886 15.0461 46.1627 12.8183 44.7611 11.1406C44.2111 10.4899 43.6351 9.91394 43.0351 9.46344C40.7746 7.7967 38.4275 6.25067 36.0037 4.83183C32.3261 2.65353 29.0236 1.15128 28.5985 0.951056C28.5731 0.951056 28.5731 0.926322 28.5731 0.926322C27.5973 0.500556 26.4213 0.200222 25.1458 0.0753778C24.8955 0.0500556 24.6452 0.0253222 24.395 0.0253222C24.1694 0.0253222 23.9445 0 23.7195 0H23.3691C21.6425 0.0253222 20.0666 0.350389 18.8152 0.926322C18.615 1.0017 15.2878 2.5281 11.5095 4.73172L11.3593 4.80651C8.94513 6.24948 6.59904 7.80346 4.32858 9.46344C3.37812 10.1642 2.52717 11.0652 1.75161 12.2171C1.57671 12.4927 1.57671 13.1434 2.32695 13.1434H4.25379C5.07942 13.1434 5.27964 12.6429 6.20537 11.9668C7.23122 11.216 9.25758 9.71372 12.9605 7.51069C15.6376 5.93364 18.1398 4.7064 19.3405 4.13047C19.3659 4.13047 19.3906 4.10573 19.4159 4.10573C19.4159 4.10573 19.4406 4.10573 19.4406 4.081C19.4406 4.081 19.466 4.081 19.466 4.05568C19.4907 4.05568 19.516 4.03094 19.516 4.03094C19.5408 4.03094 19.5661 4.00562 19.5908 4.00562C19.8911 3.85546 20.0914 3.78008 20.0914 3.78008C20.9423 3.40496 22.1431 3.15468 23.4186 3.12936H23.9191C24.2949 3.12936 24.67 3.15468 25.0204 3.20473C25.7959 3.30484 26.4967 3.45501 27.0721 3.70529C27.1221 3.73002 27.1969 3.75534 27.247 3.78008C29.6908 4.91712 32.0789 6.17033 34.4031 7.53542C36.7279 8.90716 38.9825 10.3946 41.1583 11.9921C41.6335 12.3425 42.1093 12.8431 42.5598 13.3937C43.6852 14.8459 44.6109 16.824 44.7611 18.351C44.7611 18.3763 44.8365 18.9769 44.9113 20.0034C44.9113 20.0782 44.9113 20.1282 44.9366 20.2036V20.3538C44.9366 20.4539 44.9613 20.5293 44.9613 20.6294V20.7295C44.9613 20.7795 44.9613 20.8543 44.9866 20.9044C44.9866 21.0298 45.0114 21.1547 45.0114 21.2801C45.0114 21.3555 45.0114 21.4303 45.0367 21.5056V21.5557C45.0367 21.6558 45.0367 21.7306 45.0614 21.8307V22.0309C45.2304 25.0166 45.2304 28.0081 45.0614 30.9938V31.194C45.0614 31.2941 45.0614 31.3695 45.0367 31.4696V31.5197C45.0367 31.5945 45.0367 31.6699 45.0114 31.7446C45.0114 31.8701 44.9866 31.9955 44.9866 32.1204C44.9866 32.1957 44.9866 32.2458 44.9613 32.2958V32.396C44.9613 32.4961 44.9366 32.5709 44.9366 32.671V32.8217C44.9366 32.8965 44.9366 32.9719 44.9113 33.0219C44.8365 34.0484 44.7611 34.6738 44.7611 34.6738C44.6109 36.2014 43.6852 38.1788 42.5592 39.631C42.1093 40.207 41.6335 40.6828 41.1583 41.0326C41.1335 41.0326 40.4828 41.5337 39.4069 42.2846C35.5933 44.9306 31.5584 47.2426 27.3471 49.1946L27.247 49.2447C27.1969 49.27 27.1221 49.2947 27.0721 49.32C26.4967 49.545 25.7959 49.7205 25.0204 49.8206C24.67 49.8706 24.2949 49.8954 23.9191 49.8954H23.4186C22.1431 49.8706 20.9423 49.6451 20.0914 49.2447C20.0914 49.2447 19.9165 49.1699 19.5908 49.0191C19.5661 48.9944 19.516 48.9944 19.4907 48.9691C19.466 48.9443 19.4406 48.9443 19.4159 48.919C19.3906 48.919 19.3906 48.8943 19.3659 48.8943C19.3405 48.8943 19.3158 48.8689 19.2911 48.8689C19.2657 48.8442 19.241 48.8442 19.191 48.8189H19.1656C17.0421 47.808 14.9633 46.7056 12.9352 45.5146C9.20753 43.3363 7.20589 41.8093 6.18064 41.0579C5.25432 40.3819 5.05409 39.8813 4.22847 39.8813H2.32695C1.57671 39.8813 1.57671 40.5326 1.75161 40.7823C2.52717 41.9348 3.37812 42.8358 4.32858 43.5366C4.45402 43.6367 7.50623 45.8898 11.3599 48.1682C11.5595 48.2936 11.7598 48.4184 11.9847 48.5186C15.5628 50.5714 18.6403 51.9736 18.8158 52.0737C20.0413 52.6243 21.6425 52.9499 23.3444 53H23.6942C23.9197 53 24.1447 53 24.3696 52.9747C24.6199 52.9747 24.8702 52.9499 25.1205 52.9246C26.3966 52.7998 27.5973 52.4994 28.5478 52.0737C28.5478 52.0737 28.5731 52.0737 28.5731 52.0489C28.9983 51.8487 32.3008 50.3211 35.979 48.1682C37.7417 47.1245 39.4691 46.0223 41.1583 44.8633L43.0097 43.5366C43.6104 43.0861 44.1858 42.5101 44.7364 41.8594C46.1379 40.1817 47.2633 37.9539 47.6885 35.9258C47.6885 35.901 47.6885 35.8757 47.7138 35.851C47.7385 35.6755 47.7886 35.5 47.8139 35.3504V35.2744C47.8386 35.1743 47.8386 35.0742 47.8386 34.9988C47.8386 34.9488 47.914 34.3481 47.9888 33.3717V33.2716C48.0389 33.2463 48.0389 33.1468 48.0389 33.072Z" fill="url(#paint0_linear_126_1902)"/>
<path d="M19.8162 26.9882H14.9119C14.8619 26.9882 14.8371 27.0135 14.8118 27.0635C14.687 29.2913 14.2618 31.6698 13.6611 33.6226C13.6611 33.6473 13.6611 33.6726 13.6859 33.6974C13.7112 33.7227 13.7359 33.7227 13.7612 33.7227H15.4378C15.4873 33.7227 15.5126 33.6974 15.5126 33.6726C15.9878 32.171 16.3635 30.2176 16.5137 28.5652H18.1149V33.6473C18.1149 33.6974 18.165 33.7474 18.215 33.7474H19.8162C19.8663 33.7474 19.9163 33.6974 19.9163 33.6473V27.0635C19.9163 27.0382 19.8663 26.9882 19.8162 26.9882Z" fill="#EF3E58"/>
<defs>
<linearGradient id="paint0_linear_126_1902" x1="2333.58" y1="-0.477" x2="2333.58" y2="5309.01" gradientUnits="userSpaceOnUse">
<stop offset="0.4" stop-color="#1466AC"/>
<stop offset="0.66" stop-color="#EF4058"/>
</linearGradient>
</defs>
</svg>
